<svg width="178" height="33" viewBox="0 0 178 33" fill="none" xmlns="http://www.w3.org/2000/svg">
<path d="M5.94 14.6V13.66H8.2C8.66667 13.66 9.08667 13.58 9.46 13.42C9.83333 13.26 10.1267 13.0267 10.34 12.72C10.5533 12.4133 10.66 12.04 10.66 11.6C10.66 10.9333 10.4267 10.42 9.96 10.06C9.49333 9.68667 8.90667 9.5 8.2 9.5H6.3V20.5H8.4C9 20.5 9.52667 20.3933 9.98 20.18C10.4467 19.9667 10.8067 19.66 11.06 19.26C11.3267 18.86 11.46 18.3733 11.46 17.8C11.46 17.3733 11.3867 16.9933 11.24 16.66C11.0933 16.3267 10.88 16.0467 10.6 15.82C10.3333 15.5933 10.0133 15.4267 9.64 15.32C9.26667 15.2 8.85333 15.14 8.4 15.14H5.94V14.2H8.4C9.08 14.2 9.70667 14.2733 10.28 14.42C10.8533 14.5667 11.3533 14.7933 11.78 15.1C12.22 15.3933 12.56 15.7733 12.8 16.24C13.04 16.7067 13.16 17.26 13.16 17.9C13.16 18.82 12.9467 19.5867 12.52 20.2C12.1067 20.8 11.54 21.2533 10.82 21.56C10.1133 21.8533 9.30667 22 8.4 22H4.6V8H8.2C9.04 8 9.76667 8.12667 10.38 8.38C11.0067 8.63333 11.4933 9.02 11.84 9.54C12.1867 10.0467 12.36 10.7 12.36 11.5C12.36 12.1533 12.1867 12.7133 11.84 13.18C11.4933 13.6467 11.0067 14 10.38 14.24C9.76667 14.48 9.04 14.6 8.2 14.6H5.94ZM15.8723 17.8V16.44H22.0123C21.959 15.96 21.8257 15.54 21.6123 15.18C21.4123 14.8067 21.1257 14.52 20.7523 14.32C20.3923 14.1067 19.9457 14 19.4123 14C18.879 14 18.3923 14.1133 17.9523 14.34C17.5123 14.5667 17.159 14.8933 16.8923 15.32C16.639 15.7333 16.5123 16.2267 16.5123 16.8L16.4723 17.4C16.4723 18.1067 16.5923 18.7067 16.8323 19.2C17.0723 19.6933 17.4123 20.0667 17.8523 20.32C18.2923 20.5733 18.8123 20.7 19.4123 20.7C19.8657 20.7 20.2657 20.6333 20.6123 20.5C20.9723 20.3533 21.2923 20.16 21.5723 19.92C21.8523 19.6667 22.0923 19.3733 22.2923 19.04L23.5923 19.86C23.2857 20.3267 22.9457 20.74 22.5723 21.1C22.199 21.4467 21.7457 21.72 21.2123 21.92C20.679 22.1067 20.0123 22.2 19.2123 22.2C18.3857 22.2 17.639 21.9933 16.9723 21.58C16.319 21.1667 15.799 20.6 15.4123 19.88C15.039 19.1467 14.8523 18.32 14.8523 17.4C14.8523 17.2267 14.859 17.06 14.8723 16.9C14.8857 16.74 14.9057 16.58 14.9323 16.42C15.0657 15.66 15.3323 14.9933 15.7323 14.42C16.1323 13.8467 16.6457 13.4 17.2723 13.08C17.9123 12.76 18.6257 12.6 19.4123 12.6C20.279 12.6 21.039 12.7933 21.6923 13.18C22.3457 13.5667 22.8523 14.1133 23.2123 14.82C23.5723 15.5133 23.7523 16.3467 23.7523 17.32C23.7523 17.4 23.7523 17.48 23.7523 17.56C23.7523 17.64 23.7457 17.72 23.7323 17.8H15.8723ZM27.4453 26.4H25.8453V12.8H27.4453V26.4ZM35.1453 17.4C35.1453 18.3867 34.9386 19.24 34.5253 19.96C34.112 20.68 33.5586 21.2333 32.8653 21.62C32.1853 22.0067 31.4253 22.2 30.5853 22.2C29.8253 22.2 29.152 22.0067 28.5653 21.62C27.992 21.2333 27.5386 20.68 27.2053 19.96C26.8853 19.24 26.7253 18.3867 26.7253 17.4C26.7253 16.4 26.8853 15.5467 27.2053 14.84C27.5386 14.12 27.992 13.5667 28.5653 13.18C29.152 12.7933 29.8253 12.6 30.5853 12.6C31.4253 12.6 32.1853 12.7933 32.8653 13.18C33.5586 13.5667 34.112 14.12 34.5253 14.84C34.9386 15.5467 35.1453 16.4 35.1453 17.4ZM33.5253 17.4C33.5253 16.6933 33.3786 16.0933 33.0853 15.6C32.8053 15.1067 32.4253 14.7333 31.9453 14.48C31.4786 14.2267 30.9586 14.1 30.3853 14.1C29.9186 14.1 29.4586 14.2267 29.0053 14.48C28.552 14.7333 28.1786 15.1067 27.8853 15.6C27.592 16.0933 27.4453 16.6933 27.4453 17.4C27.4453 18.1067 27.592 18.7067 27.8853 19.2C28.1786 19.6933 28.552 20.0667 29.0053 20.32C29.4586 20.5733 29.9186 20.7 30.3853 20.7C30.9586 20.7 31.4786 20.5733 31.9453 20.32C32.4253 20.0667 32.8053 19.6933 33.0853 19.2C33.3786 18.7067 33.5253 18.1067 33.5253 17.4ZM38.2916 17.9V16.4H45.0916V17.9H38.2916ZM44.0516 12.8H45.6516V22H44.0516V12.8ZM37.3516 12.8H38.9516V22H37.3516V12.8ZM55.9602 12.8L49.9602 26.4H48.1602L50.6802 20.7L47.1602 12.8H49.0602L51.9802 20L51.3202 19.92L54.1602 12.8H55.9602ZM56.0688 12.8H61.4688V14.3H56.0688V12.8ZM57.9688 13.2H59.5688V22H57.9688V13.2ZM63.0742 12.8H64.6742V22H63.0742V12.8ZM64.0142 17.68V16.28H66.8742C67.8209 16.28 68.6142 16.5133 69.2542 16.98C69.9076 17.4333 70.2342 18.1533 70.2342 19.14C70.2342 19.7933 70.0876 20.3333 69.7942 20.76C69.5009 21.1867 69.1009 21.5 68.5942 21.7C68.0876 21.9 67.5142 22 66.8742 22H64.0142V20.6H66.8742C67.2609 20.6 67.5809 20.5467 67.8342 20.44C68.1009 20.32 68.3009 20.1533 68.4342 19.94C68.5676 19.7133 68.6342 19.4467 68.6342 19.14C68.6342 18.6733 68.4876 18.3133 68.1942 18.06C67.9009 17.8067 67.4609 17.68 66.8742 17.68H64.0142ZM73.4622 17.4C73.4622 18.04 73.5955 18.6067 73.8622 19.1C74.1422 19.5933 74.5155 19.9867 74.9822 20.28C75.4622 20.56 76.0022 20.7 76.6022 20.7C77.0955 20.7 77.5555 20.6267 77.9822 20.48C78.4222 20.32 78.8022 20.1133 79.1222 19.86C79.4422 19.5933 79.6689 19.3133 79.8022 19.02V21.02C79.4822 21.3933 79.0222 21.6867 78.4222 21.9C77.8355 22.1 77.2289 22.2 76.6022 22.2C75.7089 22.2 74.9022 21.9933 74.1822 21.58C73.4622 21.1667 72.8889 20.6 72.4622 19.88C72.0489 19.1467 71.8422 18.32 71.8422 17.4C71.8422 16.4667 72.0489 15.64 72.4622 14.92C72.8889 14.2 73.4622 13.6333 74.1822 13.22C74.9022 12.8067 75.7089 12.6 76.6022 12.6C77.2289 12.6 77.8355 12.7067 78.4222 12.92C79.0222 13.12 79.4822 13.4067 79.8022 13.78V15.78C79.6689 15.4733 79.4422 15.1933 79.1222 14.94C78.8022 14.6867 78.4222 14.4867 77.9822 14.34C77.5555 14.18 77.0955 14.1 76.6022 14.1C76.0022 14.1 75.4622 14.24 74.9822 14.52C74.5155 14.8 74.1422 15.1933 73.8622 15.7C73.5955 16.1933 73.4622 16.76 73.4622 17.4ZM83.613 22H81.853L85.253 17.2H87.013L83.613 22ZM89.453 22H87.853V12.8H89.453V22ZM88.513 16.92V18.32H85.653C85.0263 18.32 84.453 18.2267 83.933 18.04C83.4263 17.8533 83.0263 17.56 82.733 17.16C82.4396 16.7467 82.293 16.2133 82.293 15.56C82.293 14.8933 82.4396 14.36 82.733 13.96C83.0263 13.56 83.4263 13.2667 83.933 13.08C84.453 12.8933 85.0263 12.8 85.653 12.8H88.513V14.2H85.653C85.2663 14.2 84.9396 14.2533 84.673 14.36C84.4196 14.4533 84.2263 14.6 84.093 14.8C83.9596 15 83.893 15.2533 83.893 15.56C83.893 15.8667 83.9596 16.12 84.093 16.32C84.2263 16.52 84.4196 16.6733 84.673 16.78C84.9396 16.8733 85.2663 16.92 85.653 16.92H88.513ZM98.897 17.2H101.557C102.197 17.2 102.77 17.2667 103.277 17.4C103.784 17.5333 104.184 17.7667 104.477 18.1C104.77 18.4333 104.917 18.9 104.917 19.5C104.917 20.1933 104.684 20.7867 104.217 21.28C103.764 21.76 103.01 22 101.957 22H98.897V20.6H101.557C102.157 20.6 102.597 20.4733 102.877 20.22C103.17 19.9667 103.317 19.66 103.317 19.3C103.317 19.1133 103.277 18.9467 103.197 18.8C103.13 18.6533 103.024 18.52 102.877 18.4C102.744 18.28 102.564 18.1933 102.337 18.14C102.124 18.0733 101.864 18.04 101.557 18.04H98.897V17.2ZM98.897 17.6V16.66H101.357C101.597 16.66 101.81 16.6333 101.997 16.58C102.197 16.5133 102.364 16.42 102.497 16.3C102.63 16.18 102.73 16.0467 102.797 15.9C102.877 15.74 102.917 15.5733 102.917 15.4C102.917 15.04 102.777 14.7533 102.497 14.54C102.217 14.3133 101.837 14.2 101.357 14.2H98.897V12.8H101.357C101.93 12.8 102.45 12.8867 102.917 13.06C103.397 13.22 103.784 13.4867 104.077 13.86C104.37 14.22 104.517 14.7 104.517 15.3C104.517 15.82 104.37 16.2533 104.077 16.6C103.784 16.9333 103.397 17.1867 102.917 17.36C102.45 17.52 101.93 17.6 101.357 17.6H98.897ZM97.957 12.8H99.557V22H97.957V12.8ZM112.916 12.8H114.516V22H112.916V12.8ZM117.916 12.8H119.916L115.916 16.6L120.316 22H118.316L113.916 16.6L117.916 12.8ZM122.544 19.3C122.544 19.62 122.631 19.8933 122.804 20.12C122.978 20.3333 123.211 20.5 123.504 20.62C123.798 20.7267 124.124 20.78 124.484 20.78C125.018 20.78 125.491 20.7 125.904 20.54C126.318 20.38 126.638 20.1267 126.864 19.78C127.104 19.4333 127.224 18.9733 127.224 18.4L127.544 19.4C127.544 19.9867 127.384 20.4933 127.064 20.92C126.758 21.3333 126.344 21.6533 125.824 21.88C125.304 22.0933 124.724 22.2 124.084 22.2C123.511 22.2 122.984 22.0933 122.504 21.88C122.024 21.6667 121.638 21.3533 121.344 20.94C121.064 20.5133 120.924 19.9867 120.924 19.36C120.924 18.7067 121.084 18.1533 121.404 17.7C121.724 17.2467 122.178 16.9 122.764 16.66C123.351 16.4067 124.044 16.28 124.844 16.28C125.431 16.28 125.931 16.36 126.344 16.52C126.771 16.6667 127.111 16.84 127.364 17.04C127.618 17.2267 127.791 17.38 127.884 17.5V18.44C127.431 18.12 126.971 17.8867 126.504 17.74C126.038 17.58 125.511 17.5 124.924 17.5C124.391 17.5 123.944 17.5733 123.584 17.72C123.238 17.8667 122.978 18.0733 122.804 18.34C122.631 18.6067 122.544 18.9267 122.544 19.3ZM122.544 14.96L121.764 13.74C122.111 13.4867 122.578 13.2333 123.164 12.98C123.751 12.7267 124.458 12.6 125.284 12.6C125.991 12.6 126.604 12.7133 127.124 12.94C127.658 13.1533 128.071 13.4667 128.364 13.88C128.671 14.2933 128.824 14.8 128.824 15.4V22H127.224V15.4C127.224 14.9333 127.024 14.5867 126.624 14.36C126.238 14.12 125.791 14 125.284 14C124.844 14 124.444 14.06 124.084 14.18C123.724 14.2867 123.411 14.42 123.144 14.58C122.891 14.7267 122.691 14.8533 122.544 14.96ZM130.131 12.8H135.531V14.3H130.131V12.8ZM132.031 13.2H133.631V22H132.031V13.2ZM137.857 19.3C137.857 19.62 137.943 19.8933 138.117 20.12C138.29 20.3333 138.523 20.5 138.817 20.62C139.11 20.7267 139.437 20.78 139.797 20.78C140.33 20.78 140.803 20.7 141.217 20.54C141.63 20.38 141.95 20.1267 142.177 19.78C142.417 19.4333 142.537 18.9733 142.537 18.4L142.857 19.4C142.857 19.9867 142.697 20.4933 142.377 20.92C142.07 21.3333 141.657 21.6533 141.137 21.88C140.617 22.0933 140.037 22.2 139.397 22.2C138.823 22.2 138.297 22.0933 137.817 21.88C137.337 21.6667 136.95 21.3533 136.657 20.94C136.377 20.5133 136.237 19.9867 136.237 19.36C136.237 18.7067 136.397 18.1533 136.717 17.7C137.037 17.2467 137.49 16.9 138.077 16.66C138.663 16.4067 139.357 16.28 140.157 16.28C140.743 16.28 141.243 16.36 141.657 16.52C142.083 16.6667 142.423 16.84 142.677 17.04C142.93 17.2267 143.103 17.38 143.197 17.5V18.44C142.743 18.12 142.283 17.8867 141.817 17.74C141.35 17.58 140.823 17.5 140.237 17.5C139.703 17.5 139.257 17.5733 138.897 17.72C138.55 17.8667 138.29 18.0733 138.117 18.34C137.943 18.6067 137.857 18.9267 137.857 19.3ZM137.857 14.96L137.077 13.74C137.423 13.4867 137.89 13.2333 138.477 12.98C139.063 12.7267 139.77 12.6 140.597 12.6C141.303 12.6 141.917 12.7133 142.437 12.94C142.97 13.1533 143.383 13.4667 143.677 13.88C143.983 14.2933 144.137 14.8 144.137 15.4V22H142.537V15.4C142.537 14.9333 142.337 14.5867 141.937 14.36C141.55 14.12 141.103 14 140.597 14C140.157 14 139.757 14.06 139.397 14.18C139.037 14.2867 138.723 14.42 138.457 14.58C138.203 14.7267 138.003 14.8533 137.857 14.96ZM154.904 12.8V22H153.304V14.3H148.604V18.8C148.604 19.52 148.49 20.12 148.264 20.6C148.05 21.0667 147.717 21.42 147.264 21.66C146.81 21.8867 146.237 22 145.544 22V20.54C145.944 20.54 146.284 20.4133 146.564 20.16C146.857 19.9067 147.004 19.4533 147.004 18.8V12.8H154.904ZM157.196 17.4C157.196 16.4667 157.403 15.64 157.816 14.92C158.243 14.2 158.816 13.6333 159.536 13.22C160.256 12.8067 161.063 12.6 161.956 12.6C162.863 12.6 163.669 12.8067 164.376 13.22C165.096 13.6333 165.663 14.2 166.076 14.92C166.503 15.64 166.716 16.4667 166.716 17.4C166.716 18.32 166.503 19.1467 166.076 19.88C165.663 20.6 165.096 21.1667 164.376 21.58C163.669 21.9933 162.863 22.2 161.956 22.2C161.063 22.2 160.256 21.9933 159.536 21.58C158.816 21.1667 158.243 20.6 157.816 19.88C157.403 19.1467 157.196 18.32 157.196 17.4ZM158.816 17.4C158.816 18.04 158.949 18.6067 159.216 19.1C159.496 19.5933 159.869 19.9867 160.336 20.28C160.816 20.56 161.356 20.7 161.956 20.7C162.556 20.7 163.089 20.56 163.556 20.28C164.036 19.9867 164.409 19.5933 164.676 19.1C164.956 18.6067 165.096 18.04 165.096 17.4C165.096 16.76 164.956 16.1933 164.676 15.7C164.409 15.1933 164.036 14.8 163.556 14.52C163.089 14.24 162.556 14.1 161.956 14.1C161.356 14.1 160.816 14.24 160.336 14.52C159.869 14.8 159.496 15.1933 159.216 15.7C158.949 16.1933 158.816 16.76 158.816 17.4ZM169.014 12.8H173.914V14.3H170.614V22H169.014V12.8Z" fill="#BB8C5F"/>
<path d="M0.113249 30L3 32.8868L5.88675 30L3 27.1132L0.113249 30ZM177.887 30L175 27.1132L172.113 30L175 32.8867L177.887 30ZM3 30.5L175 30.5L175 29.5L3 29.5L3 30.5Z" fill="#BB8C5F"/>
</svg>
