<svg width="40" height="40" viewBox="0 0 40 40" fill="none" xmlns="http://www.w3.org/2000/svg">
<rect x="0.5" y="0.5" width="39" height="39" fill="#050402"/>
<path d="M25.3198 16.9105C25.2296 16.1759 25.0044 15.599 24.6044 15.0881C24.085 14.4302 23.4212 14.0362 22.4385 13.8025C21.7981 13.6467 21.5394 13.6646 21.3077 13.8767C21.092 14.0754 21.0499 14.4738 21.2147 14.7318C21.3307 14.919 21.4644 14.9861 21.8365 15.0593C22.3319 15.1507 22.6743 15.2693 22.9857 15.4478C23.6468 15.8304 23.9546 16.4292 23.9876 17.3986C24.003 17.8538 24.0422 17.9937 24.2008 18.1552C24.4947 18.4502 25.0178 18.3929 25.2397 18.0397C25.3211 17.9066 25.3335 17.8487 25.3421 17.5396C25.3478 17.3483 25.3396 17.0635 25.3198 16.9105Z" fill="#BB8C5F"/>
<path d="M27.909 17.739C27.7785 15.4883 26.9003 13.6774 25.3287 12.4034C24.4432 11.6875 23.3729 11.1952 22.1996 10.9558C21.7699 10.8702 20.9786 10.8008 20.8428 10.8405C20.7147 10.8772 20.5336 11.0163 20.4528 11.142C20.3674 11.2784 20.3482 11.5829 20.421 11.759C20.5386 12.0534 20.7573 12.1574 21.3699 12.2111C22.3143 12.2939 23.2884 12.6266 24.0244 13.119C24.8646 13.6796 25.5325 14.4465 25.9646 15.3476C26.338 16.1219 26.5676 17.2377 26.5612 18.2368C26.5591 18.5982 26.6148 18.8023 26.7597 18.9515C26.9785 19.1809 27.2975 19.2311 27.579 19.0787C27.891 18.9142 27.9639 18.6255 27.909 17.739Z" fill="#BB8C5F"/>
<path d="M30.7738 26.4064C30.7299 26.2777 30.6275 26.0793 30.5542 25.9654C30.093 25.2672 27.615 23.3231 26.3778 22.6873C25.6714 22.3235 25.148 22.2022 24.76 22.3161C24.3427 22.4337 24.1231 22.6285 23.424 23.4995C23.1422 23.8486 22.853 24.1757 22.7761 24.2271C22.5858 24.3594 22.2124 24.466 21.9489 24.466C21.3376 24.4623 20.2286 24.0654 19.3757 23.5435C18.7132 23.1393 17.864 22.4154 17.2125 21.6987C16.4438 20.8571 15.9204 20.1148 15.5068 19.2769C14.9724 18.2001 14.837 17.5423 15.0602 17.0608C15.1151 16.9396 15.1883 16.811 15.2212 16.7705C15.2542 16.7338 15.5983 16.4508 15.9789 16.1421C16.7257 15.5468 16.8464 15.4108 16.9855 15.0029C17.1612 14.4847 17.1137 13.9555 16.8428 13.4226C16.6341 13.0183 16.0888 12.1364 15.6935 11.5667C15.17 10.8171 13.867 9.21477 13.607 8.99788C13.1385 8.61572 12.5383 8.54953 11.8757 8.80684C11.1767 9.07879 9.86625 10.1372 9.30621 10.8759C8.80109 11.5447 8.60716 12.0188 8.57784 12.6435C8.55224 13.158 8.59615 13.3711 8.86701 14.029C10.9863 19.1887 14.1488 23.3083 18.4936 26.5791C20.763 28.288 23.1165 29.5889 25.5579 30.4783C26.9818 30.9965 27.6004 31.0222 28.3288 30.5959C28.6362 30.4121 29.3976 29.6294 29.8222 29.0598C30.5249 28.1116 30.7848 27.6743 30.858 27.3251C30.9093 27.0863 30.869 26.671 30.7738 26.4064Z" fill="#BB8C5F"/>
<path d="M30.5447 18.2553C30.4978 16.9822 30.284 15.9379 29.8381 14.7736C29.3979 13.6283 28.9524 12.8809 28.1111 11.8701C27.3156 10.9223 26.6978 10.3812 25.7179 9.7788C24.3508 8.93951 22.6871 8.3841 20.8226 8.15052C20.1867 8.06888 20.0429 8.07471 19.8478 8.2052C19.4698 8.45239 19.4748 9.06894 19.854 9.31243C19.9796 9.38988 20.091 9.4181 20.5996 9.48484C21.3803 9.59022 21.8824 9.68953 22.4781 9.85248C24.8142 10.4927 26.6106 11.8012 27.8116 13.7437C28.8167 15.3628 29.2339 16.982 29.1746 19.05C29.154 19.7491 29.169 19.8722 29.2756 20.0401C29.4798 20.3532 30.0181 20.4151 30.2943 20.1553C30.4662 19.997 30.4986 19.8781 30.5324 19.2798C30.5486 18.9676 30.5521 18.5068 30.5447 18.2553Z" fill="#BB8C5F"/>
<rect x="0.5" y="0.5" width="39" height="39" stroke="#BB8C5F"/>
</svg>
