<svg width="40" height="40" viewBox="0 0 40 40" fill="none" xmlns="http://www.w3.org/2000/svg">
<rect x="0.714286" y="0.714286" width="38.5714" height="38.5714" fill="#050402"/>
<path fill-rule="evenodd" clip-rule="evenodd" d="M32.4567 19.0441C32.454 25.5998 27.1211 30.934 20.5641 30.9366H20.5592C18.5688 30.936 16.613 30.4366 14.876 29.4891L8.57153 31.1429L10.2587 24.9803C9.21798 23.1766 8.67035 21.1308 8.67124 19.0348C8.67385 12.4776 14.0089 7.14288 20.564 7.14288C23.7454 7.14426 26.7314 8.38277 28.9767 10.6307C31.222 12.8786 32.4579 15.8665 32.4567 19.0441ZM11.4268 28.3175L15.168 27.3362L15.5289 27.5504C17.0466 28.451 18.7862 28.9275 20.56 28.9282H20.564C26.0121 28.9282 30.4464 24.4939 30.4485 19.0435C30.4496 16.4023 29.4224 13.9188 27.5561 12.0504C25.6899 10.182 23.2081 9.15253 20.5679 9.15161C15.1155 9.15161 10.6812 13.5855 10.6791 19.0355C10.6783 20.9032 11.2009 22.7222 12.1904 24.2959L12.4254 24.6699L11.4268 28.3175Z" fill="#BB8C5F"/>
<path d="M26.32 22.6152C26.2458 22.4912 26.0477 22.4169 25.7505 22.2681C25.4534 22.1193 23.9924 21.4006 23.72 21.3013C23.4477 21.2022 23.2495 21.1526 23.0514 21.45C22.8534 21.7475 22.2839 22.4169 22.1105 22.6152C21.9372 22.8134 21.7638 22.8383 21.4668 22.6895C21.1696 22.5408 20.2121 22.2271 19.0771 21.2146C18.1937 20.4267 17.5973 19.4536 17.424 19.1561C17.2506 18.8586 17.4055 18.6979 17.5543 18.5497C17.688 18.4165 17.8514 18.2025 18 18.0291C18.1486 17.8556 18.1981 17.7316 18.2972 17.5334C18.3962 17.335 18.3467 17.1615 18.2724 17.0127C18.1981 16.864 17.6038 15.4013 17.3562 14.8063C17.115 14.2269 16.87 14.3054 16.6876 14.2962C16.5145 14.2875 16.3162 14.2857 16.1181 14.2857C15.92 14.2857 15.598 14.3601 15.3257 14.6576C15.0533 14.9551 14.2856 15.674 14.2856 17.1366C14.2856 18.5992 15.3504 20.0122 15.499 20.2105C15.6476 20.4089 17.5944 23.4103 20.5753 24.6975C21.2843 25.0037 21.8377 25.1865 22.2693 25.3234C22.9812 25.5497 23.629 25.5177 24.141 25.4412C24.7119 25.3559 25.8991 24.7224 26.1468 24.0283C26.3943 23.334 26.3943 22.7391 26.32 22.6152Z" fill="#BB8C5F"/>
<rect x="0.714286" y="0.714286" width="38.5714" height="38.5714" stroke="#BB8C5F" stroke-width="1.42857"/>
</svg>
